# xmcd CD database file
#
# Track frame offsets:
#	150
#	17476
#	29367
#	42751
#	56396
#	70948
#	79244
#	93025
#	106603
#	117629
#
# Disc length: 1749 seconds
#
# Revision: 0
# Processed by: cddbd v1.5.2PL0 Copyright (c) Steve Scherf et al.
# Submitted via: CDex 1.51
#
DISCID=7106d30a
DTITLE=Various Artist - The Best Of Country
DYEAR=2006
DGENRE=Country
TTITLE0=Dr Hook - Sylvia's Mother
TTITLE1=Jim Reeves - Am I Losing You
TTITLE2=Tammy Wynette - D-I-V-O-R-C-E
TTITLE3=Jimmy Dean - Big Bad John
TTITLE4=John Denver - Take Me Home Country Roads
TTITLE5=Johnny Western - The Ballad of Paladin
TTITLE6=Lefty Frizzell - Long Black Veil
TTITLE7=Marion Worth - I Think I Know
TTITLE8=Marty Robbins - Singing The Blues
TTITLE9=Mitch Miller - The Yellow Rose Of Texas
EXTD=YEAR: 2006
EXTT0=
EXTT1=
EXTT2=
EXTT3=
EXTT4=
EXTT5=
EXTT6=
EXTT7=
EXTT8=
EXTT9=
PLAYORDER=
